<svg xmlns="http://www.w3.org/2000/svg" version="1.1" xmlns:xlink="http://www.w3.org/1999/xlink" xmlns:svgjs="http://svgjs.dev/svgjs" width="1440" height="560" preserveAspectRatio="none" viewBox="0 0 1440 560"><g mask="url(&quot;#SvgjsMask1017&quot;)" fill="none"><path d="M200.87 390.55L253.76 390.55L253.76 443.44L200.87 443.44z" stroke="rgba(53, 29, 203, 1)"></path><path d="M1216.88 204.87L1269.85 204.87L1269.85 257.84L1216.88 257.84z" stroke="rgba(99, 107, 203, 1)"></path><path d="M414.94 137.83L458.62 137.83L458.62 181.51L414.94 181.51z" stroke="#037b0b"></path><path d="M1390.07 425.87L1445.54 425.87L1445.54 481.34L1390.07 481.34z" fill="rgba(74, 151, 183, 1)"></path><path d="M968.72 169.59L994.17 169.59L994.17 207.75L968.72 207.75z" stroke="#d3b714"></path><path d="M405.75 258.6a4.81 4.81 0 1 0-9.62 0.1z" stroke="#d3b714"></path><path d="M6.75 339.85L26.22 339.85L26.22 359.32L6.75 359.32z" stroke="#d3b714"></path><path d="M496.45 225.65 a50.87 50.87 0 1 0 101.74 0 a50.87 50.87 0 1 0 -101.74 0z" fill="rgba(74, 151, 183, 1)"></path><path d="M708.95 473.27 a28.97 28.97 0 1 0 57.94 0 a28.97 28.97 0 1 0 -57.94 0z" fill="rgba(99, 107, 203, 1)"></path><path d="M765.62 471.73 a52.32 52.32 0 1 0 104.64 0 a52.32 52.32 0 1 0 -104.64 0z" stroke="rgba(74, 151, 183, 1)"></path><path d="M1147.59 116.97 a6.06 6.06 0 1 0 12.12 0 a6.06 6.06 0 1 0 -12.12 0z" fill="rgba(74, 151, 183, 1)"></path><path d="M1172.53 445.95 a1.5 1.5 0 1 0 3 0 a1.5 1.5 0 1 0 -3 0z" fill="#d3b714"></path><path d="M1089.21 425.17L1124.03 425.17L1124.03 444.03L1089.21 444.03z" stroke="#037b0b"></path><path d="M30.47 20.24L31.32 20.24L31.32 21.09L30.47 21.09z" stroke="rgba(53, 29, 203, 1)"></path><path d="M953.98 20.67a25.16 25.16 0 1 0-48.99-11.49z" stroke="rgba(53, 29, 203, 1)"></path><path d="M1390.45 394.81L1433.77 394.81L1433.77 438.13L1390.45 438.13z" stroke="rgba(74, 151, 183, 1)"></path><path d="M1275 87.91a45.7 45.7 0 1 0-88.78 21.75z" fill="rgba(99, 107, 203, 1)"></path><path d="M1257.99 421.76L1309.47 421.76L1309.47 462.49L1257.99 462.49z" fill="rgba(53, 29, 203, 1)"></path><path d="M621.07 32.92L674.31 32.92L674.31 86.16L621.07 86.16z" stroke="rgba(74, 151, 183, 1)"></path><path d="M1238.36 42.17a16.12 16.12 0 1 0-15.49 28.28z" fill="#037b0b"></path><path d="M536.68 123.59L548.21 123.59L548.21 141.31L536.68 141.31z" stroke="rgba(99, 107, 203, 1)"></path><path d="M901.03 182.27L902.33 182.27L902.33 183.57L901.03 183.57z" stroke="#d3b714"></path><path d="M1260.51 311.31L1306.02 311.31L1306.02 356.82L1260.51 356.82z" fill="#037b0b"></path><path d="M340.73 51.25 a2.95 2.95 0 1 0 5.9 0 a2.95 2.95 0 1 0 -5.9 0z" stroke="rgba(53, 29, 203, 1)"></path><path d="M795.86 114.99a3.17 3.17 0 1 0-6.31-0.6z" fill="rgba(99, 107, 203, 1)"></path><path d="M276.44 381.64a20.15 20.15 0 1 0-27.16-29.77z" stroke="rgba(99, 107, 203, 1)"></path><path d="M1055.5 292.56a46.89 46.89 0 1 0 73.88-57.76z" stroke="rgba(74, 151, 183, 1)"></path><path d="M737.15 36.97L770.03 36.97L770.03 69.85L737.15 69.85z" stroke="rgba(53, 29, 203, 1)"></path><path d="M251.75 451.88a22.23 22.23 0 1 0 38.36-22.46z" stroke="rgba(74, 151, 183, 1)"></path><path d="M564.14 439.54L610.25 439.54L610.25 485.65L564.14 485.65z" stroke="rgba(99, 107, 203, 1)"></path><path d="M336.22 78.96a42.29 42.29 0 1 0-54.55-64.65z" fill="rgba(74, 151, 183, 1)"></path><path d="M140.65 314.76L154.79 314.76L154.79 328.9L140.65 328.9z" fill="rgba(99, 107, 203, 1)"></path><path d="M1226.77 220.98L1253.86 220.98L1253.86 248.07L1226.77 248.07z" fill="#037b0b"></path></g><defs><mask id="SvgjsMask1017"><rect width="1440" height="560" fill="#ffffff"></rect></mask></defs></svg>