<?xml version="1.0" standalone="no"?><svg xmlns="http://www.w3.org/2000/svg" viewBox="0 0 1440 320"><path fill="#a2d9ff" fill-opacity="1" d="M0,0L12.6,42.7C25.3,85,51,171,76,176C101.1,181,126,107,152,64C176.8,21,202,11,227,32C252.6,53,278,107,303,122.7C328.4,139,354,117,379,133.3C404.2,149,429,203,455,186.7C480,171,505,85,531,80C555.8,75,581,149,606,165.3C631.6,181,657,139,682,106.7C707.4,75,733,53,758,69.3C783.2,85,808,139,834,154.7C858.9,171,884,149,909,122.7C934.7,96,960,64,985,69.3C1010.5,75,1036,117,1061,133.3C1086.3,149,1112,139,1137,128C1162.1,117,1187,107,1213,112C1237.9,117,1263,139,1288,133.3C1313.7,128,1339,96,1364,96C1389.5,96,1415,128,1427,144L1440,160L1440,0L1427.4,0C1414.7,0,1389,0,1364,0C1338.9,0,1314,0,1288,0C1263.2,0,1238,0,1213,0C1187.4,0,1162,0,1137,0C1111.6,0,1086,0,1061,0C1035.8,0,1011,0,985,0C960,0,935,0,909,0C884.2,0,859,0,834,0C808.4,0,783,0,758,0C732.6,0,707,0,682,0C656.8,0,632,0,606,0C581.1,0,556,0,531,0C505.3,0,480,0,455,0C429.5,0,404,0,379,0C353.7,0,328,0,303,0C277.9,0,253,0,227,0C202.1,0,177,0,152,0C126.3,0,101,0,76,0C50.5,0,25,0,13,0L0,0Z"></path></svg>